# xmcd
#
# Track frame offsets:
#	150
#	14751
#	32528
#	54960
#	77319
#	100869
#	116456
#	128866
#	149162
#	167149
#
# Disc length: 2415 seconds
#
# Revision: 1
# Processed by: cddbd v1.5.2PL0 Copyright (c) Steve Scherf et al.
# Submitted via: audiograbber 1.83.01
#
DISCID=7e096d0a
DTITLE=Dean Haitani - Book of Covers Vol 1
DYEAR=2007
DGENRE=Blues
TTITLE0=Don't Worry, Be Happy
TTITLE1=So Damn Good
TTITLE2=No Woman No Cry
TTITLE3=Little Wing
TTITLE4=Maria Maria
TTITLE5=What I Am
TTITLE6=Blue Suede Shoes
TTITLE7=Razors Edge
TTITLE8=Mean Old Frisco
TTITLE9=Corrina
EXTD=Australian
EXTT0=
EXTT1=
EXTT2=
EXTT3=
EXTT4=
EXTT5=
EXTT6=
EXTT7=
EXTT8=
EXTT9=
PLAYORDER=
